<?xml version="1.0" standalone="no"?><!DOCTYPE svg PUBLIC "-//W3C//DTD SVG 20010904//EN"        "http://www.w3.org/TR/2001/REC-SVG-20010904/DTD/svg10.dtd"><svg version="1.0" xmlns="http://www.w3.org/2000/svg"     width="256.000000pt" height="256.000000pt" viewBox="0 0 256.000000 256.000000"     preserveAspectRatio="xMidYMid meet">    <g transform="translate(0.000000,256.000000) scale(0.100000,-0.100000)"       fill="#000000" stroke="none">        <path d="M305 2546 c-148 -37 -262 -155 -294 -304 -18 -84 -15 -1870 3 -193840 -151 155 -261 304 -293 74 -16 1850 -16 1924 0 123 26 218 101 275 217 l3876 3 940 c2 690 0 956 -8 996 -34 156 -153 276 -308 309 -79 16 -1869 14-1937 -3z m435 -1011 c0 -52 1 -54 23 -46 32 12 82 -5 106 -35 18 -22 21 -4121 -115 l0 -89 -30 0 -30 0 0 78 c0 82 -9 102 -45 102 -36 0 -45 -20 -45 -102l0 -78 -30 0 -30 0 0 170 0 170 30 0 c30 0 30 -1 30 -55z m740 -52 l1 -108 2230 c54 73 71 87 105 83 l33 -3 -40 -48 -40 -48 39 -65 c22 -35 40 -67 40 -690 -3 -16 -5 -35 -5 -27 0 -38 6 -49 28 -32 57 -33 58 -55 31 -11 -13 -20 -32-21 -41 0 -13 -8 -18 -30 -18 l-30 0 0 170 0 170 30 0 30 0 0 -107z m-887 6c12 -6 30 -19 40 -27 16 -15 16 -16 -4 -38 -22 -23 -22 -23 -47 -4 -31 25 -4725 -72 0 -56 -56 11 -141 76 -95 19 13 23 12 44 -10 l22 -24 -33 -20 c-20 -13-51 -21 -77 -21 -58 0 -111 47 -118 105 -12 94 90 174 169 134z m506 -3 c54-28 54 -36 -6 -106 -53 -62 -58 -88 -9 -57 22 15 25 14 46 -8 l22 -24 -33 -20c-21 -13 -51 -21 -77 -21 -37 0 -50 6 -77 33 -43 43 -52 79 -34 131 25 72 103105 168 72z m234 3 c12 -6 30 -19 40 -27 16 -15 16 -16 -4 -38 -22 -23 -22-23 -47 -4 -31 25 -47 25 -72 0 -56 -56 11 -141 76 -95 19 13 23 12 44 -10l22 -24 -33 -20 c-20 -13 -51 -21 -77 -21 -58 0 -111 47 -118 105 -12 94 90174 169 134z m524 -33 c26 -28 33 -44 33 -76 0 -81 -49 -130 -129 -130 -71 0-132 77 -115 146 26 105 141 137 211 60z m133 -36 c13 -38 26 -67 30 -64 3 314 33 26 67 20 60 22 62 59 65 28 3 36 0 32 -10 -3 -7 -24 -62 -47 -121 -42-108 -42 -108 -73 -105 -31 3 -34 8 -74 108 -23 58 -42 111 -42 118 -1 7 1212 32 12 32 0 34 -2 57 -70z m-1040 -289 c0 -14 5 -18 19 -14 22 6 51 -21 51-47 0 -23 -26 -50 -47 -50 -33 0 -53 31 -53 82 0 36 4 48 15 48 8 0 15 -9 15-19z m250 -2 c0 -11 4 -17 10 -14 13 8 46 -11 54 -31 8 -21 -19 -64 -41 -64-33 0 -53 31 -53 82 0 36 4 48 15 48 8 0 15 -9 15 -21z m267 -20 l-5 -40 2325 c13 15 29 26 35 26 21 0 50 -41 50 -72 0 -53 -51 -89 -79 -55 -14 18 -2 3016 15 10 -8 17 -8 25 0 9 9 7 12 -9 12 -12 0 -29 10 -37 22 l-16 22 -16 -22c-8 -12 -23 -22 -33 -22 -27 0 -54 35 -46 59 7 24 40 45 55 36 6 -3 10 3 1014 0 13 7 21 16 21 14 0 16 -7 11 -41z m-97 27 c0 -3 -4 -8 -10 -11 -5 -3 -10-1 -10 4 0 6 5 11 10 11 6 0 10 -2 10 -4z m-314 -47 c1 -58 34 -61 34 -3 0 244 34 13 32 17 -6 21 -89 5 -110 -16 -21 -49 -27 -55 -10 -3 7 3 12 14 12 14 013 3 -7 13 -20 10 -26 21 -28 56 -2 32 0 42 10 39 7 -3 13 -16 14 -29z m27421 c0 -6 -7 -13 -15 -16 -9 -4 -15 -19 -15 -41 0 -23 -4 -33 -12 -30 -15 4-12 65 4 85 13 15 38 16 38 2z m318 -6 c30 -20 28 -30 -8 -43 -36 -12 -40 -24-5 -15 15 4 25 2 25 -5 0 -17 -48 -25 -65 -11 -21 17 -19 67 3 79 23 14 24 1450 -5z m96 10 c20 -8 11 -24 -14 -24 -10 0 -22 -5 -25 -10 -9 -15 13 -40 30-34 16 7 29 -12 15 -21 -22 -13 -60 5 -66 32 -5 20 -2 31 16 45 25 21 23 2044 12z m76 -4 c0 -6 -7 -13 -15 -16 -9 -4 -15 -19 -15 -40 0 -19 -4 -34 -10-34 -18 0 -12 78 8 89 22 13 32 14 32 1z m71 0 c27 -15 24 -38 -6 -46 -14 -3-25 -10 -25 -15 0 -5 12 -6 28 -3 24 7 26 6 13 -9 -17 -22 -39 -22 -63 0 -2422 -23 49 4 67 27 19 24 19 49 6z m-531 -45 c0 -25 -4 -45 -10 -45 -5 0 -1020 -10 45 0 25 5 45 10 45 6 0 10 -20 10 -45z m590 9 c0 -45 24 -42 28 4 4 4422 40 22 -4 0 -24 4 -34 13 -31 6 2 12 18 12 35 0 19 5 32 12 32 17 0 17 -641 -77 -7 -6 -33 -10 -58 -9 l-45 1 -3 43 c-2 25 1 42 7 42 6 0 11 -16 11 -36z"/>        <path d="M1012 1424 c-15 -10 -22 -25 -22 -47 l0 -32 35 40 c19 22 34 43 3548 0 12 -24 8 -48 -9z"/>        <path d="M1730 1420 c-39 -39 -15 -110 38 -110 29 0 62 34 62 64 0 25 -41 66-66 66 -8 0 -23 -9 -34 -20z"/>        <path d="M953 1074 c-6 -16 15 -37 29 -28 4 3 8 14 8 25 0 23 -28 26 -37 3z"/>        <path d="M1197 1076 c-9 -22 19 -42 37 -26 19 15 10 40 -14 40 -10 0 -20 -6-23 -14z"/>        <path d="M1394 1079 c-8 -14 21 -43 35 -35 6 4 11 16 11 27 0 21 -34 27 -46 8z"/>        <path d="M1497 1076 c-3 -8 1 -20 9 -27 12 -10 18 -9 31 3 8 9 12 21 9 27 -1016 -43 14 -49 -3z"/>        <path d="M1600 1081 c0 -5 9 -7 20 -4 11 3 20 7 20 9 0 2 -9 4 -20 4 -11 0-20 -4 -20 -9z"/>        <path d="M1845 1080 c-8 -13 5 -13 25 0 13 8 13 10 -2 10 -9 0 -20 -4 -23 -10z"/>    </g></svg>