<svg width="400" height="120" viewBox="0 0 868 259" fill="none" xmlns="http://www.w3.org/2000/svg">
<path fill-rule="evenodd" clip-rule="evenodd" d="M820.992 170.248H789.831L743.431 48.448H778.8L805.41 124.417L831.91 48.448H867.393L820.992 170.248ZM723.415 154.048C717.775 159.792 711.074 164.388 703.683 167.581C696.024 170.845 687.785 172.528 679.46 172.528C671.134 172.528 662.895 170.845 655.236 167.581C640.153 161.092 628.24 148.913 622.084 133.69C618.782 125.627 617.12 116.986 617.194 108.273C617.11 99.4673 618.772 90.7323 622.084 82.573C625.164 74.9618 629.704 68.0269 635.447 62.159C641.107 56.424 647.828 51.8444 655.236 48.675C662.868 45.3972 671.096 43.7324 679.402 43.785C687.719 43.7227 695.967 45.2874 703.683 48.391C711.08 51.3642 717.794 55.8126 723.415 61.465C729.15 67.3061 733.673 74.2247 736.721 81.822C740.071 90.2298 741.733 99.2151 741.61 108.265C741.684 116.978 740.021 125.618 736.72 133.682C733.636 141.262 729.118 148.175 723.415 154.043V154.048ZM707.891 94.677C706.369 90.7928 704.11 87.2399 701.238 84.214C698.462 81.3165 695.112 79.031 691.401 77.504C683.703 74.3947 675.099 74.3947 667.401 77.504C663.702 79.0221 660.369 81.3093 657.621 84.214C654.784 87.2446 652.563 90.7983 651.082 94.677C649.438 99.0168 648.628 103.628 648.693 108.268C648.651 112.74 649.461 117.178 651.082 121.346C652.58 125.216 654.799 128.767 657.621 131.809C660.386 134.765 663.71 137.142 667.401 138.803C671.169 140.513 675.263 141.386 679.401 141.362C683.522 141.387 687.604 140.575 691.401 138.974C695.097 137.42 698.443 135.138 701.238 132.264C704.127 129.251 706.388 125.695 707.891 121.801C711.151 113.054 711.151 103.424 707.891 94.677ZM579.665 170.248L554.986 126.009L533.378 154.665V170.245H502.103V0H533.378V107.358L579.665 48.675H615.375L575.002 99.397L615.375 170.248H579.665ZM459.565 86.948C457.676 84.4901 455.434 82.325 452.912 80.523C450.463 78.7875 447.757 77.4447 444.894 76.543C442.025 75.6351 439.033 75.1747 436.023 75.178C431.879 75.1553 427.782 76.0483 424.023 77.793C420.285 79.5261 416.953 82.0251 414.243 85.128C411.388 88.4236 409.17 92.2215 407.703 96.328C406.064 100.925 405.256 105.778 405.315 110.658C405.288 114.76 406.104 118.823 407.71 122.597C409.254 126.241 411.473 129.559 414.25 132.378C417.042 135.202 420.366 137.445 424.03 138.978C430.617 141.709 437.939 142.111 444.785 140.115C447.57 139.289 450.229 138.084 452.685 136.533C455.155 134.975 457.379 133.058 459.285 130.846C461.219 128.61 462.809 126.1 464.005 123.397L486.75 146.256C483.893 150.324 480.552 154.028 476.799 157.288C473.082 160.522 468.998 163.308 464.63 165.588C460.27 167.863 455.649 169.6 450.87 170.762C446.011 171.942 441.028 172.534 436.028 172.525C427.728 172.578 419.504 170.933 411.862 167.692C396.96 161.431 385.073 149.624 378.71 134.765C375.428 127.154 373.763 118.944 373.82 110.655C373.75 101.703 375.411 92.8213 378.71 84.499C381.8 76.6559 386.332 69.4615 392.073 63.289C397.68 57.2909 404.401 52.4428 411.862 49.016C419.437 45.522 427.687 43.7362 436.028 43.785C441.076 43.781 446.103 44.4307 450.983 45.718C460.839 48.3115 469.876 53.3588 477.254 60.389C481.052 64.01 484.325 68.144 486.978 72.671L464.232 95.53C463.145 92.4383 461.571 89.5399 459.57 86.944L459.565 86.948ZM311.265 141.195C312.476 141.309 313.689 141.366 314.904 141.366C317.868 141.376 320.818 140.955 323.661 140.115C326.446 139.289 329.105 138.084 331.561 136.533C334.031 134.975 336.255 133.058 338.161 130.846C340.094 128.61 341.685 126.1 342.88 123.397L365.626 146.256C362.769 150.324 359.428 154.028 355.675 157.288C351.958 160.522 347.874 163.308 343.506 165.588C339.145 167.863 334.525 169.6 329.745 170.762C324.887 171.942 319.904 172.534 314.904 172.525C306.744 172.578 298.655 171.007 291.109 167.902C283.563 164.798 276.71 160.223 270.949 154.443C265.208 148.617 260.668 141.72 257.586 134.143C254.255 125.929 252.593 117.134 252.696 108.271C252.583 99.2407 254.245 90.2761 257.586 81.886C260.553 74.3543 265.022 67.5055 270.721 61.7571C276.421 56.0087 283.231 51.481 290.737 48.45C298.408 45.3155 306.624 43.7301 314.91 43.785C319.933 43.7784 324.937 44.3894 329.81 45.604C339.45 47.9951 348.378 52.6544 355.853 59.194C359.625 62.4717 362.986 66.1949 365.861 70.282L307.633 140.451C308.816 140.825 310.036 141.073 311.271 141.191L311.265 141.195ZM323.547 76.428C322.172 75.9145 320.74 75.571 319.282 75.405C317.828 75.2512 316.366 75.1754 314.904 75.178C310.789 75.1523 306.71 75.9447 302.904 77.509C299.215 79.0199 295.884 81.2862 293.123 84.162C290.282 87.1654 288.062 90.7008 286.592 94.565C284.943 98.9413 284.133 103.589 284.204 108.265C284.204 109.402 284.261 110.691 284.374 112.131C284.487 113.571 284.677 115.031 284.943 116.51C285.21 117.988 285.532 119.409 285.91 120.774C286.249 122.044 286.745 123.267 287.388 124.414L323.547 76.428ZM205.846 100.648H206.074C206.089 97.5419 205.47 94.4654 204.254 91.607C201.892 86.005 197.446 81.5398 191.854 79.154C189.017 77.9349 185.958 77.3153 182.87 77.334C179.708 77.315 176.575 77.934 173.658 79.154C168.007 81.4892 163.509 85.9662 161.148 91.607C159.931 94.4651 159.312 97.5418 159.328 100.648V170.248H128.285V0H159.332V53.793C162.772 51.1304 166.663 49.1079 170.819 47.822C174.73 46.6514 178.791 46.0575 182.874 46.059C190.143 46.0111 197.344 47.463 204.027 50.324C210.478 53.0692 216.331 57.0484 221.256 62.038C226.182 67.0576 230.117 72.9606 232.856 79.438C235.713 86.1419 237.165 93.3607 237.121 100.648V170.248H205.846V100.648ZM85.7512 86.944C83.8624 84.486 81.6205 82.3209 79.0982 80.519C76.6488 78.7833 73.9436 77.4405 71.0802 76.539C68.2112 75.6309 65.2194 75.1701 62.2102 75.173C58.0664 75.1504 53.9688 76.0433 50.2102 77.788C46.4722 79.5212 43.14 82.0202 40.4292 85.123C37.5738 88.4185 35.3564 92.2165 33.8902 96.323C32.2512 100.92 31.4427 105.773 31.5022 110.653C31.473 114.755 32.2857 118.819 33.8902 122.594C35.4333 126.238 37.652 129.556 40.4292 132.375C43.2218 135.199 46.5461 137.442 50.2102 138.975C56.7971 141.707 64.1192 142.108 70.9651 140.112C73.7504 139.286 76.4087 138.081 78.8652 136.53C81.3349 134.972 83.5593 133.055 85.4651 130.843C87.3985 128.607 88.9892 126.097 90.1852 123.394L112.93 146.253C110.073 150.321 106.732 154.025 102.979 157.285C99.2623 160.519 95.1779 163.305 90.8102 165.585C86.4502 167.862 81.8301 169.601 77.0512 170.765C72.1925 171.944 67.2097 172.534 62.2102 172.523C53.9093 172.576 45.6852 170.932 38.0432 167.69C23.1416 161.429 11.2552 149.623 4.89215 134.765C1.6101 127.154 -0.0550747 118.944 0.00215364 110.655C-0.068335 101.702 1.59211 92.8205 4.89215 84.498C7.98139 76.6548 12.5141 69.4605 18.2552 63.288C23.8616 57.2906 30.5828 52.4429 38.0432 49.016C45.6181 45.5221 53.8685 43.7363 62.2102 43.785C67.2577 43.781 72.2845 44.4308 77.1652 45.718C87.0204 48.3118 96.0583 53.359 103.436 60.389C107.234 64.01 110.507 68.144 113.16 72.671L90.4101 95.53C89.3237 92.4384 87.7509 89.54 85.7512 86.944ZM502.497 197.436H510.172V213.277H510.234C510.914 212.739 511.683 212.323 512.505 212.049C513.86 211.49 515.256 211.039 516.681 210.698L518.154 210.575C519.069 210.419 520.003 210.419 520.917 210.575L522.022 210.637C524.353 211.084 526.594 211.914 528.654 213.093C531.778 215.126 534.184 218.09 535.531 221.566C535.787 222.329 535.992 223.109 536.145 223.899C536.681 226.071 536.744 228.332 536.329 230.53C536.026 231.891 535.615 233.225 535.101 234.521C533.007 239.29 529.072 242.35 523.864 244.038C523.099 244.287 522.38 244.216 521.531 244.407C520.8 244.521 520.06 244.562 519.321 244.53C516.193 244.572 513.127 243.65 510.541 241.889C507.109 239.708 504.563 236.379 503.357 232.495C502.212 229.022 502.497 224.127 502.497 219.601V197.436ZM601.29 197.436H608.965C608.945 203.063 608.925 208.691 608.904 214.321V219.847C608.973 220.788 608.953 221.734 608.842 222.671V225.68C608.842 228.153 608.917 230.772 608.29 232.68C607.132 236.253 604.821 239.341 601.72 241.461C601.191 241.832 600.628 242.038 600.062 242.382C597.445 243.971 592.333 245.347 588.15 244.162C582.326 242.513 578.331 239.143 576.116 233.908C575.702 232.768 575.373 231.598 575.134 230.408C574.67 227.717 574.881 224.953 575.748 222.364C577.795 216.864 580.928 213.473 586.431 211.435C589.518 210.39 592.833 210.22 596.01 210.944C597.865 211.486 599.64 212.271 601.29 213.277V197.436V197.436ZM571.143 199.892H571.51C571.583 199.964 571.645 200.047 571.694 200.137C571.857 200.631 571.9 201.158 571.817 201.672V205.847C571.817 206.453 571.967 207.269 571.51 207.447C570.974 207.611 570.407 207.653 569.852 207.57H565.493C564.95 207.57 563.912 207.542 564.142 206.894L565.984 205.114L571.143 199.892ZM547.749 244.775H540.074V229.302C540.074 226.071 539.883 222.635 540.688 220.154C541.244 218.171 542.255 216.344 543.641 214.82C545.027 213.296 546.749 212.115 548.67 211.373C552.129 209.963 556.68 210.709 560.889 210.821V210.944C560.439 211.582 560.048 212.26 559.722 212.97C559.08 214.017 558.401 215.116 557.757 216.163C557.431 216.693 557.039 218.054 556.284 218.063C555.659 217.918 555.009 217.918 554.384 218.063L553.284 218.124C551.959 218.296 550.707 218.827 549.662 219.66C547.585 221.723 547.762 224.64 547.762 228.747V244.775H547.749ZM719.731 244.775V229.118C719.731 226.14 719.481 222.786 720.222 220.461C721.595 216.152 723.97 213.168 727.959 211.496C728.978 211.126 730.025 210.839 731.09 210.637L732.69 210.514C733.604 210.366 734.534 210.346 735.453 210.452C736.264 210.627 737.302 210.452 738.153 210.637C738.945 210.765 739.746 210.826 740.548 210.821V210.882C740.188 211.383 739.879 211.919 739.627 212.482C738.827 213.767 738.027 215.123 737.232 216.411C736.932 216.895 736.632 218.047 735.943 218.069C735.318 217.924 734.668 217.924 734.043 218.069L732.877 218.13C731.667 218.332 730.516 218.793 729.5 219.481C727.342 221.055 727.412 224.181 727.412 227.955V244.717C726.599 244.842 725.774 244.863 724.956 244.778H719.737L719.731 244.775ZM665.085 210.514C666.375 210.406 667.673 210.447 668.953 210.637C670.568 210.967 672.15 211.44 673.681 212.049C676.336 213.3 678.627 215.209 680.335 217.595C682.044 219.98 683.114 222.764 683.443 225.68C682.83 225.848 682.234 226.074 681.663 226.355C680.313 226.915 678.913 227.29 677.61 227.829C676.789 228.169 675.982 228.285 675.154 228.629C672.484 229.729 669.598 230.597 666.927 231.699C665.19 232.415 663.396 232.907 661.708 233.599C661.064 233.73 660.443 233.958 659.866 234.275H659.927C660.335 234.759 660.836 235.156 661.401 235.441C662.478 236.144 663.686 236.621 664.953 236.843C666.219 237.064 667.518 237.026 668.769 236.731C671.068 236.153 673.064 234.727 674.356 232.74C675.971 233.616 677.692 234.464 679.33 235.319C679.771 235.549 680.943 235.942 681.049 236.424C680.755 236.756 680.507 237.126 680.312 237.524C679.872 238.149 679.228 238.647 678.777 239.243C678.66 239.446 678.515 239.632 678.347 239.796C677.46 240.468 676.66 241.282 675.707 241.883C673.742 243.031 671.608 243.86 669.383 244.339L667.909 244.462C667.36 244.543 666.804 244.564 666.251 244.524C664.012 244.471 661.803 243.991 659.743 243.111C657.464 242.164 655.427 240.718 653.78 238.88C652.133 237.041 650.919 234.858 650.226 232.489C649.387 229.936 649.197 227.214 649.673 224.569C650.024 223.06 650.497 221.581 651.086 220.148C652.944 216.305 656.159 213.286 660.111 211.674C661.253 211.263 662.422 210.935 663.611 210.692C664.108 210.693 664.603 210.633 665.085 210.514V210.514ZM702.907 210.514C706.589 210.273 710.256 211.174 713.407 213.093C714.323 213.67 715.07 214.501 715.986 215.057V215.119H715.924L710.644 220.461C710.299 220.24 709.97 219.993 709.661 219.724C708.846 219.172 707.958 218.737 707.021 218.434C701.496 216.628 696.881 220.568 695.421 224.145C695.077 225.219 694.87 226.333 694.807 227.46C694.778 228.688 695.03 229.906 695.543 231.022C696.032 232.307 696.8 233.467 697.792 234.419C698.784 235.37 699.975 236.09 701.28 236.524C702.584 236.959 703.968 237.099 705.333 236.933C706.697 236.767 708.008 236.3 709.17 235.565C709.75 235.301 710.272 234.927 710.71 234.465H710.772V234.526L716.113 239.807V239.865H716.052C715.361 240.607 714.551 241.229 713.657 241.707C710.392 243.88 704.643 245.612 699.535 243.918C696.829 243.126 694.363 241.673 692.358 239.69C690.354 237.707 688.875 235.256 688.054 232.559C687.185 229.95 686.994 227.162 687.501 224.459C687.743 223.31 688.071 222.181 688.483 221.082C690.138 217.115 693.201 213.901 697.083 212.056C698.281 211.562 699.512 211.152 700.767 210.828C701.489 210.784 702.206 210.679 702.91 210.514H702.907ZM754.607 210.514C756.146 210.401 757.694 210.484 759.212 210.759C764.551 212.144 768.012 214.615 770.571 218.741C771.916 220.828 772.738 223.208 772.966 225.68C772.186 225.902 771.426 226.189 770.694 226.539C769.344 227.099 767.945 227.474 766.642 228.013C765.821 228.352 765.007 228.472 764.186 228.813C761.515 229.913 758.629 230.782 755.958 231.883C754.444 232.508 752.878 232.938 751.414 233.541C750.706 233.685 750.023 233.933 749.388 234.278H749.45C749.892 234.795 750.437 235.213 751.05 235.506C752.118 236.177 753.307 236.63 754.55 236.841C755.794 237.052 757.066 237.015 758.295 236.734C760.515 236.112 762.936 234.61 763.883 232.743C765.505 233.623 767.247 234.443 768.856 235.322C769.301 235.564 770.473 235.922 770.575 236.427C770.319 236.754 770.093 237.103 769.9 237.471C769.5 238.047 768.978 238.561 768.549 239.128C768.243 239.48 767.892 239.79 767.505 240.049C766.685 240.669 765.948 241.449 765.049 242.014C763.028 243.169 760.828 243.98 758.541 244.414L757.436 244.475C755.043 244.753 752.617 244.436 750.375 243.554C749.467 243.257 748.584 242.889 747.734 242.454C743.841 240.218 740.961 236.568 739.691 232.262C739.177 230.635 738.948 228.932 739.016 227.227C739.036 226.654 739.056 226.081 739.077 225.508C739.256 224.323 739.524 223.153 739.877 222.008C741.73 217.418 744.626 213.896 749.087 211.938C750.205 211.486 751.354 211.119 752.526 210.838L754.607 210.514ZM627.693 210.575C637.757 210.383 643.56 216.128 645.745 223.775C646.516 226.475 646.213 229.996 646.175 233.17V238.511C646.258 239.328 646.258 240.15 646.175 240.967C645.975 241.844 646.247 242.667 646.052 243.485C645.822 244.777 645.494 246.05 645.069 247.292C643.874 250.325 641.88 252.977 639.298 254.967C637.542 256.233 635.593 257.207 633.526 257.852C632.726 258.113 631.965 258.08 631.07 258.282C629.752 258.516 628.404 258.537 627.079 258.344L624.562 257.852C622.644 257.267 620.823 256.398 619.162 255.274C618.792 255.014 618.474 254.621 618.118 254.353C617.274 253.707 616.53 252.942 615.907 252.081C615.536 251.762 615.242 251.363 615.048 250.914C615.607 250.474 616.121 249.981 616.583 249.441C617.401 248.641 618.22 247.841 619.039 247.041C619.468 246.471 619.987 245.973 620.574 245.567V245.629C620.983 246.154 621.352 246.708 621.679 247.287C622.734 248.596 624.108 249.612 625.67 250.234C627.773 250.974 630.062 250.995 632.178 250.295C633.992 249.704 635.58 248.567 636.723 247.04C637.866 245.512 638.509 243.668 638.564 241.761H638.503C637.904 242.22 637.243 242.591 636.538 242.861C632.669 244.704 628.261 245.075 624.138 243.905C621.457 243.084 619.022 241.611 617.05 239.618C615.078 237.624 613.631 235.173 612.838 232.484C611.981 229.762 611.833 226.867 612.409 224.072C612.698 222.902 613.068 221.753 613.514 220.634C615.227 216.775 618.312 213.689 622.171 211.976C623.289 211.525 624.438 211.157 625.61 210.876L627.693 210.575ZM563.836 211.065H571.51V244.775H563.835V211.065H563.836ZM777.017 211.557H784.631C784.738 212.227 784.758 212.908 784.692 213.583V232.433C784.795 232.883 784.898 233.333 784.999 233.784C785.297 234.666 785.827 235.45 786.534 236.055C789.064 237.931 792.964 237.102 794.394 234.827C795.471 233.113 795.253 230.079 795.253 227.275V211.558H802.867V227.399C802.867 229.913 802.579 232.985 803.542 234.583C804.505 236.181 805.551 236.645 807.656 237.1C809.524 237.505 811.756 236.034 812.384 235.135C813.655 233.324 813.428 230.478 813.428 227.399V211.558H821.041V225.987C821.041 228.578 821.341 232.242 820.796 234.399C820.387 236.241 819.637 237.99 818.585 239.556C818.187 240.239 817.691 240.86 817.112 241.398C815.517 242.716 813.684 243.717 811.712 244.345C810.981 244.562 810.312 244.479 809.502 244.652C808.957 244.764 808.396 244.785 807.844 244.714H806.8C806.322 244.607 805.764 244.607 805.265 244.468C803.723 244.052 802.267 243.366 800.965 242.442C800.243 242.023 799.6 241.482 799.065 240.842C799.04 240.856 799.019 240.878 799.004 240.903L797.591 242.192C796.36 243.1 794.992 243.804 793.539 244.28C790.538 245.054 787.366 244.817 784.513 243.605C780.699 241.936 778.536 238.989 777.329 234.705C776.717 232.527 777.022 229.357 777.022 226.723V211.558L777.017 211.557ZM518.83 218.065C518.408 218.174 517.976 218.235 517.54 218.249C516.894 218.411 516.259 218.616 515.64 218.863C513.361 219.914 511.579 221.807 510.666 224.144C510.456 224.745 510.292 225.361 510.175 225.986C509.944 227.297 510.028 228.643 510.421 229.915C510.765 231.31 511.433 232.605 512.371 233.693C513.309 234.782 514.492 235.633 515.821 236.178C517.219 236.832 518.765 237.108 520.303 236.978C521.156 236.863 521.998 236.679 522.821 236.426C525.222 235.503 527.162 233.67 528.221 231.326C528.514 230.569 528.739 229.788 528.896 228.992C529.181 227.263 528.946 225.488 528.221 223.892C526.732 220.38 523.858 218.059 518.83 218.065ZM591.22 218.065C590.899 218.146 590.569 218.187 590.238 218.188C589.547 218.337 588.87 218.542 588.212 218.802C587.014 219.339 585.935 220.11 585.039 221.069C584.143 222.028 583.447 223.157 582.993 224.389C582.85 224.983 582.707 225.577 582.563 226.17C582.353 227.53 582.479 228.922 582.931 230.222C583.316 231.579 584.009 232.828 584.957 233.873C585.905 234.917 587.082 235.727 588.396 236.24C589.742 236.852 591.223 237.105 592.696 236.976C593.612 236.846 594.515 236.641 595.396 236.362C597.755 235.418 599.651 233.587 600.676 231.262C600.936 230.584 601.142 229.886 601.29 229.175C601.545 227.804 601.461 226.392 601.045 225.061C600.622 223.473 599.794 222.021 598.643 220.848C597.491 219.675 596.055 218.821 594.475 218.368C593.412 218.104 592.314 218.001 591.22 218.065V218.065ZM665.76 218.065C665.439 218.147 665.109 218.188 664.778 218.188C664.132 218.323 663.496 218.508 662.878 218.74C661.21 219.43 659.774 220.583 658.741 222.063C657.707 223.542 657.119 225.287 657.045 227.091H657.107C657.38 226.955 657.669 226.852 657.966 226.784C658.827 226.428 659.759 226.177 660.666 225.802C663.558 224.607 666.678 223.682 669.566 222.486C670.41 222.137 671.283 221.894 672.083 221.565C672.556 221.472 673.012 221.307 673.434 221.074C672.877 220.712 672.45 220.108 671.899 219.723C670.081 218.533 667.931 217.952 665.76 218.065V218.065ZM755.282 218.065C754.981 218.143 754.672 218.185 754.361 218.188C753.65 218.337 752.952 218.542 752.273 218.802C750.64 219.509 749.239 220.662 748.229 222.127C747.219 223.593 746.642 225.313 746.563 227.091H746.624C746.957 226.93 747.308 226.807 747.668 226.723C748.529 226.367 749.461 226.115 750.368 225.74C753.2 224.571 756.257 223.652 759.087 222.486C759.996 222.111 760.927 221.858 761.787 221.504C762.197 221.423 762.59 221.278 762.954 221.074C762.454 220.749 762.093 220.191 761.603 219.846C759.745 218.582 757.527 217.957 755.282 218.065V218.065ZM628.368 218.126C628.047 218.207 627.717 218.248 627.385 218.249C626.694 218.399 626.017 218.604 625.359 218.863C623.035 219.89 621.205 221.786 620.259 224.144C620.018 224.845 619.834 225.563 619.706 226.293C619.508 227.548 619.613 228.832 620.013 230.038C620.377 231.443 621.067 232.742 622.027 233.83C622.987 234.918 624.191 235.765 625.539 236.301C626.887 236.905 628.367 237.159 629.839 237.038C630.755 236.909 631.658 236.703 632.539 236.424C634.941 235.461 636.862 233.584 637.881 231.205C638.112 230.586 638.296 229.951 638.433 229.305C638.701 227.829 638.596 226.31 638.126 224.885C637.678 223.346 636.845 221.947 635.706 220.819C634.568 219.691 633.161 218.871 631.618 218.437C630.556 218.172 629.461 218.068 628.368 218.127V218.126ZM429.247 244.665C426.969 244.678 424.712 244.238 422.606 243.37C420.559 242.529 418.699 241.289 417.135 239.723C415.571 238.156 414.335 236.294 413.498 234.245C412.584 232.011 412.127 229.617 412.153 227.204V197.444H419.968V214.265L420.859 213.143C421.321 212.57 421.865 212.068 422.473 211.654C423.12 211.209 423.819 210.844 424.553 210.566C425.314 210.278 426.098 210.058 426.897 209.907C427.672 209.758 428.458 209.681 429.247 209.678C431.536 209.663 433.805 210.109 435.918 210.988C437.948 211.838 439.789 213.081 441.336 214.645C442.899 216.244 444.141 218.128 444.996 220.194C445.908 222.417 446.365 224.8 446.341 227.203C446.37 229.642 445.913 232.063 444.996 234.323C444.152 236.384 442.909 238.257 441.339 239.837C439.789 241.373 437.948 242.584 435.924 243.4C433.801 244.25 431.534 244.68 429.247 244.665V244.665ZM429.247 217.465C427.994 217.461 426.758 217.745 425.632 218.295C424.529 218.832 423.536 219.57 422.703 220.47C421.867 221.377 421.202 222.43 420.743 223.575C420.274 224.728 420.032 225.961 420.032 227.206C420.021 228.519 420.262 229.821 420.742 231.043C421.193 232.187 421.862 233.233 422.71 234.123C423.546 234.994 424.544 235.695 425.647 236.187C426.781 236.688 428.007 236.947 429.247 236.947C430.487 236.947 431.713 236.688 432.847 236.187C433.95 235.695 434.948 234.994 435.784 234.123C436.633 233.231 437.305 232.187 437.766 231.046C438.257 229.826 438.505 228.521 438.494 227.206C438.504 225.886 438.256 224.577 437.766 223.352C437.308 222.202 436.636 221.15 435.784 220.252C434.948 219.382 433.948 218.686 432.843 218.202C431.709 217.709 430.484 217.458 429.247 217.465ZM458.595 257.004V249.252L462.978 249.309C463.879 249.311 464.774 249.162 465.625 248.868C467.299 248.288 468.767 247.23 469.846 245.825C470.387 245.124 470.83 244.354 471.166 243.535L471.616 242.435L470.509 242.897C469.546 243.297 468.568 243.697 467.573 244.097C466.678 244.466 465.721 244.658 464.753 244.664C462.769 244.676 460.801 244.312 458.953 243.589C457.187 242.893 455.576 241.854 454.213 240.533C452.826 239.162 451.737 237.52 451.013 235.709C450.21 233.669 449.813 231.492 449.844 229.3V210.98H457.595V229.3C457.574 230.439 457.765 231.572 458.159 232.641C458.501 233.546 459.025 234.371 459.699 235.065C460.345 235.715 461.126 236.216 461.987 236.532C462.873 236.853 463.809 237.013 464.751 237.007C465.721 237.009 466.677 236.777 467.538 236.331C468.392 235.894 469.156 235.301 469.79 234.582C470.428 233.859 470.935 233.031 471.29 232.135C471.653 231.234 471.84 230.271 471.84 229.3V210.98H479.687V240.232C479.679 242.483 479.211 244.709 478.312 246.773C477.441 248.773 476.194 250.587 474.639 252.117C473.071 253.649 471.231 254.875 469.213 255.733C467.121 256.621 464.87 257.072 462.597 257.058L458.595 257.004Z" fill="#C5C6C6"/>
</svg>
