<svg xmlns="http://www.w3.org/2000/svg" width="200.407" height="90.469" viewBox="0 0 867.407 258.469">
  <defs>
    <style>
      .cls-1 {
        fill: #fff;
        fill-rule: evenodd;
      }
    </style>
  </defs>
  <path id="checkov_l" class="cls-1" d="M821.282,171.183H790.121l-46.4-121.8h35.369L805.7,125.352l26.5-75.969h35.483Zm-97.577-16.2a62.262,62.262,0,0,1-19.732,13.533,61.78,61.78,0,0,1-48.447,0,62.332,62.332,0,0,1-33.152-33.891,65.585,65.585,0,0,1-4.89-25.417,66.619,66.619,0,0,1,4.89-25.7,62.94,62.94,0,0,1,13.363-20.414A62.149,62.149,0,0,1,655.526,49.61a60.274,60.274,0,0,1,24.166-4.89,63.787,63.787,0,0,1,24.281,4.606A58.714,58.714,0,0,1,723.705,62.4a62.022,62.022,0,0,1,13.306,20.357A68.918,68.918,0,0,1,741.9,109.2a65.622,65.622,0,0,1-4.89,25.417A63.615,63.615,0,0,1,723.705,154.978ZM708.181,95.612a32.336,32.336,0,0,0-6.653-10.463,28.8,28.8,0,0,0-9.837-6.71,32.041,32.041,0,0,0-24,0,28.2,28.2,0,0,0-9.78,6.71,32.007,32.007,0,0,0-6.539,10.463,36.906,36.906,0,0,0-2.389,13.591,35.161,35.161,0,0,0,2.389,13.078,32.781,32.781,0,0,0,6.539,10.463,30.583,30.583,0,0,0,9.78,6.994,28.649,28.649,0,0,0,12,2.559,30.407,30.407,0,0,0,12-2.388,29.862,29.862,0,0,0,9.837-6.71,31.524,31.524,0,0,0,6.653-10.463A38.835,38.835,0,0,0,708.181,95.612ZM579.955,171.183l-24.679-44.239L533.668,155.6v15.58H502.393V0.935h31.275V108.293L579.955,49.61h35.71l-40.373,50.722,40.373,70.851h-35.71Zm-120.1-83.3a31.442,31.442,0,0,0-6.653-6.425,28.867,28.867,0,0,0-8.018-3.98,29.3,29.3,0,0,0-8.871-1.365,28.135,28.135,0,0,0-12,2.615,29.414,29.414,0,0,0-9.78,7.335,35.165,35.165,0,0,0-6.54,11.2,41.183,41.183,0,0,0-2.388,14.33A29.984,29.984,0,0,0,408,123.532a31.374,31.374,0,0,0,6.54,9.781,30.071,30.071,0,0,0,9.78,6.6,31.31,31.31,0,0,0,20.755,1.137,31.642,31.642,0,0,0,7.9-3.582,29.446,29.446,0,0,0,6.6-5.687,29.852,29.852,0,0,0,4.72-7.449l22.745,22.859a61.232,61.232,0,0,1-9.951,11.032,62.834,62.834,0,0,1-12.169,8.3,60.805,60.805,0,0,1-13.76,5.174,62.389,62.389,0,0,1-14.842,1.763,60.885,60.885,0,0,1-24.166-4.833A62.327,62.327,0,0,1,379,135.7a59.859,59.859,0,0,1-4.89-24.11A69.494,69.494,0,0,1,379,85.434a67.428,67.428,0,0,1,13.363-21.21,63.188,63.188,0,0,1,19.789-14.273,56.9,56.9,0,0,1,24.166-5.231,58.46,58.46,0,0,1,14.955,1.933,60.343,60.343,0,0,1,26.271,14.671,56.315,56.315,0,0,1,9.724,12.282L464.522,96.465A30.814,30.814,0,0,0,459.86,87.879Zm-148.3,54.247q1.817,0.171,3.639.171a30.544,30.544,0,0,0,8.757-1.251,31.658,31.658,0,0,0,7.9-3.582,29.468,29.468,0,0,0,6.6-5.687,29.849,29.849,0,0,0,4.719-7.449l22.746,22.859a61.232,61.232,0,0,1-9.951,11.032,62.834,62.834,0,0,1-12.169,8.3,60.813,60.813,0,0,1-13.761,5.174,62.381,62.381,0,0,1-14.841,1.763,61.492,61.492,0,0,1-43.955-18.082,62.425,62.425,0,0,1-13.363-20.3,66.767,66.767,0,0,1-4.89-25.872,68.98,68.98,0,0,1,4.89-26.385,59.625,59.625,0,0,1,33.151-33.436A62.807,62.807,0,0,1,315.2,44.72a61.279,61.279,0,0,1,14.9,1.819,62.348,62.348,0,0,1,26.043,13.59,61.792,61.792,0,0,1,10.008,11.088l-58.228,70.169A17.6,17.6,0,0,0,311.561,142.126Zm12.282-64.767a18.011,18.011,0,0,0-4.265-1.023,40.923,40.923,0,0,0-4.378-.227,31.056,31.056,0,0,0-12,2.331,28.565,28.565,0,0,0-9.781,6.653A31.369,31.369,0,0,0,286.882,95.5a37.259,37.259,0,0,0-2.388,13.7q0,1.706.17,3.866t0.569,4.379q0.4,2.217.967,4.264a15.75,15.75,0,0,0,1.478,3.64ZM206.136,101.583h0.228a22.817,22.817,0,0,0-1.82-9.041,23.44,23.44,0,0,0-12.4-12.453,22.413,22.413,0,0,0-8.984-1.82,23.509,23.509,0,0,0-9.212,1.82,23.142,23.142,0,0,0-12.51,12.453,22.782,22.782,0,0,0-1.82,9.041v69.6H128.575V0.935h31.047V54.728a36.3,36.3,0,0,1,11.487-5.971,41.992,41.992,0,0,1,12.055-1.763,52.861,52.861,0,0,1,21.153,4.265,53.819,53.819,0,0,1,17.229,11.714,55.96,55.96,0,0,1,11.6,17.4,53.279,53.279,0,0,1,4.265,21.21v69.6H206.136v-69.6ZM86.041,87.879a31.433,31.433,0,0,0-6.653-6.425,28.852,28.852,0,0,0-8.018-3.98A29.3,29.3,0,0,0,62.5,76.108a28.136,28.136,0,0,0-12,2.615,29.424,29.424,0,0,0-9.781,7.335,35.157,35.157,0,0,0-6.539,11.2,41.181,41.181,0,0,0-2.388,14.33,29.983,29.983,0,0,0,2.388,11.941,31.365,31.365,0,0,0,6.539,9.781,30.081,30.081,0,0,0,9.781,6.6,31.309,31.309,0,0,0,20.755,1.137,31.65,31.65,0,0,0,7.9-3.582,29.451,29.451,0,0,0,6.6-5.687,29.86,29.86,0,0,0,4.72-7.449l22.745,22.859a61.232,61.232,0,0,1-9.951,11.032,62.829,62.829,0,0,1-12.169,8.3A60.809,60.809,0,0,1,77.341,171.7,62.382,62.382,0,0,1,62.5,173.458a60.889,60.889,0,0,1-24.167-4.833A62.327,62.327,0,0,1,5.182,135.7a59.846,59.846,0,0,1-4.89-24.11,69.479,69.479,0,0,1,4.89-26.157,67.422,67.422,0,0,1,13.363-21.21A63.2,63.2,0,0,1,38.333,49.951,56.907,56.907,0,0,1,62.5,44.72a58.462,58.462,0,0,1,14.955,1.933,60.351,60.351,0,0,1,26.271,14.671,56.315,56.315,0,0,1,9.724,12.282L90.7,96.465A30.808,30.808,0,0,0,86.041,87.879ZM502.787,198.371h7.675v15.841h0.062a7.463,7.463,0,0,1,2.271-1.228,28.037,28.037,0,0,1,4.176-1.351l1.473-.123a8.215,8.215,0,0,1,2.763,0l1.105,0.062a21.528,21.528,0,0,1,6.632,2.456,17.768,17.768,0,0,1,6.877,8.473,18.17,18.17,0,0,1,.614,2.333,15.6,15.6,0,0,1,.184,6.631,26.4,26.4,0,0,1-1.228,3.991c-2.094,4.769-6.029,7.829-11.237,9.517-0.765.249-1.484,0.178-2.333,0.369a11.2,11.2,0,0,1-2.21.123,15.235,15.235,0,0,1-8.78-2.641,17.158,17.158,0,0,1-7.184-9.394c-1.145-3.473-.86-8.368-0.86-12.894V198.371Zm98.793,0h7.675q-0.03,8.44-.061,16.885v5.526a14.849,14.849,0,0,1-.062,2.824v3.009c0,2.473.075,5.092-.552,7a16.979,16.979,0,0,1-6.57,8.781c-0.529.371-1.092,0.577-1.658,0.921-2.617,1.589-7.729,2.965-11.912,1.78-5.824-1.649-9.819-5.019-12.034-10.254a24.214,24.214,0,0,1-.982-3.5,16.509,16.509,0,0,1,.614-8.044c2.047-5.5,5.18-8.891,10.683-10.929a17.645,17.645,0,0,1,9.579-.491,22,22,0,0,1,5.28,2.333V198.371Zm-30.147,2.456H571.8a1.061,1.061,0,0,1,.184.245,3.252,3.252,0,0,1,.123,1.535v4.175c0,0.606.15,1.422-.307,1.6a3.76,3.76,0,0,1-1.658.123h-4.359c-0.543,0-1.581-.028-1.351-0.676l1.842-1.78ZM548.039,245.71h-7.675V230.237c0-3.231-.191-6.667.614-9.148a13.249,13.249,0,0,1,7.982-8.781c3.459-1.41,8.01-.664,12.219-0.552v0.123a12.744,12.744,0,0,0-1.167,2.026c-0.642,1.047-1.321,2.146-1.965,3.193-0.326.53-.718,1.891-1.473,1.9a4.207,4.207,0,0,0-1.9,0l-1.1.061a7.315,7.315,0,0,0-3.622,1.536c-2.077,2.063-1.9,4.98-1.9,9.087V245.71Zm171.982,0V230.053c0-2.978-.25-6.332.491-8.657,1.373-4.309,3.748-7.293,7.737-8.965a20.207,20.207,0,0,1,3.131-.859l1.6-.123a10.069,10.069,0,0,1,2.763-.062c0.811,0.175,1.849,0,2.7.185a14.443,14.443,0,0,0,2.395.184v0.061a9.073,9.073,0,0,0-.921,1.6c-0.8,1.285-1.6,2.641-2.395,3.929-0.3.484-.6,1.636-1.289,1.658a4.207,4.207,0,0,0-1.9,0l-1.166.061a8.526,8.526,0,0,0-3.377,1.351c-2.158,1.574-2.088,4.7-2.088,8.474v16.762a9.613,9.613,0,0,1-2.456.061h-5.219Zm-54.646-34.261a16.782,16.782,0,0,1,3.868.123,27.936,27.936,0,0,1,4.728,1.412,17.2,17.2,0,0,1,9.762,13.631,9.936,9.936,0,0,0-1.78.675c-1.35.56-2.75,0.935-4.053,1.474-0.821.34-1.628,0.456-2.456,0.8-2.67,1.1-5.556,1.968-8.227,3.07-1.737.716-3.531,1.208-5.219,1.9a6.522,6.522,0,0,0-1.842.676h0.061a4.7,4.7,0,0,0,1.474,1.166,9.49,9.49,0,0,0,7.368,1.29,9.4,9.4,0,0,0,5.587-3.991c1.615,0.876,3.336,1.724,4.974,2.579,0.441,0.23,1.613.623,1.719,1.105a4.941,4.941,0,0,0-.737,1.1c-0.44.625-1.084,1.123-1.535,1.719a2.566,2.566,0,0,1-.43.553c-0.887.672-1.687,1.486-2.64,2.087a21.489,21.489,0,0,1-6.324,2.456l-1.474.123a7.585,7.585,0,0,1-1.658.062,17.636,17.636,0,0,1-6.508-1.413,16.525,16.525,0,0,1-9.517-10.622,16.182,16.182,0,0,1-.553-7.92,28.7,28.7,0,0,1,1.413-4.421,17.266,17.266,0,0,1,9.025-8.474,25.192,25.192,0,0,1,3.5-.982A6.073,6.073,0,0,0,665.375,211.449Zm37.822,0a17.941,17.941,0,0,1,10.5,2.579c0.916,0.577,1.663,1.408,2.579,1.964v0.062h-0.062l-5.28,5.342a8.4,8.4,0,0,1-.983-0.737,10.433,10.433,0,0,0-2.64-1.29c-5.525-1.806-10.14,2.134-11.6,5.711a13.3,13.3,0,0,0-.614,3.315,8.076,8.076,0,0,0,.736,3.562A9.276,9.276,0,0,0,709.46,236.5,4.944,4.944,0,0,0,711,235.4h0.062v0.061l5.341,5.281V240.8h-0.061a9.22,9.22,0,0,1-2.395,1.842c-3.265,2.173-9.014,3.905-14.122,2.211a16.986,16.986,0,0,1-11.481-11.359,16.188,16.188,0,0,1-.553-8.1,23.3,23.3,0,0,1,.982-3.377,17.419,17.419,0,0,1,8.6-9.026,28.11,28.11,0,0,1,3.684-1.228A12.816,12.816,0,0,0,703.2,211.449Zm51.7,0a18.327,18.327,0,0,1,4.605.245c5.339,1.385,8.8,3.856,11.359,7.982a15.43,15.43,0,0,1,2.395,6.939,14.4,14.4,0,0,0-2.272.859c-1.35.56-2.749,0.935-4.052,1.474-0.821.339-1.635,0.459-2.456,0.8-2.671,1.1-5.557,1.969-8.228,3.07-1.514.625-3.08,1.055-4.544,1.658a7.275,7.275,0,0,0-2.026.737h0.062a4.849,4.849,0,0,0,1.6,1.228,9.594,9.594,0,0,0,7.245,1.228c2.22-.622,4.641-2.124,5.588-3.991,1.622,0.88,3.364,1.7,4.973,2.579,0.445,0.242,1.617.6,1.719,1.105a6.918,6.918,0,0,0-.675,1.044c-0.4.576-.922,1.09-1.351,1.657a5.267,5.267,0,0,1-1.044.921c-0.82.62-1.557,1.4-2.456,1.965a21.037,21.037,0,0,1-6.508,2.4l-1.105.061a14.666,14.666,0,0,1-7.061-.921,18.186,18.186,0,0,1-2.641-1.1,17.441,17.441,0,0,1-8.043-10.192,14.756,14.756,0,0,1-.675-5.035q0.03-.859.061-1.719a24.046,24.046,0,0,1,.8-3.5c1.853-4.59,4.749-8.112,9.21-10.07a24.231,24.231,0,0,1,3.439-1.1Zm-126.914.061c10.064-.192,15.867,5.553,18.052,13.2,0.771,2.7.468,6.221,0.43,9.395v5.341a12.143,12.143,0,0,1,0,2.456c-0.2.877,0.072,1.7-.123,2.518a25.676,25.676,0,0,1-.983,3.807,18.046,18.046,0,0,1-5.771,7.675,20.127,20.127,0,0,1-5.772,2.885c-0.8.261-1.561,0.228-2.456,0.43a12.534,12.534,0,0,1-3.991.062l-2.517-.492a20.086,20.086,0,0,1-5.4-2.578c-0.37-.26-0.688-0.653-1.044-0.921a10.9,10.9,0,0,1-2.211-2.272,3.222,3.222,0,0,1-.859-1.167,10.9,10.9,0,0,0,1.535-1.473q1.227-1.2,2.456-2.4a6.658,6.658,0,0,1,1.535-1.474v0.062a13.458,13.458,0,0,1,1.105,1.658,9.767,9.767,0,0,0,3.991,2.947,10.074,10.074,0,0,0,6.508.061,9.255,9.255,0,0,0,6.386-8.534h-0.061a7.861,7.861,0,0,1-1.965,1.1,17.635,17.635,0,0,1-12.4,1.044,16.959,16.959,0,0,1-11.3-11.421,16.753,16.753,0,0,1-.429-8.412,26.336,26.336,0,0,1,1.105-3.438,17.034,17.034,0,0,1,8.657-8.658,24.36,24.36,0,0,1,3.439-1.1ZM564.126,212H571.8V245.71h-7.675V212Zm213.181,0.492h7.614a7.967,7.967,0,0,1,.061,2.026v18.85q0.155,0.675.307,1.351a5.16,5.16,0,0,0,1.535,2.271c2.53,1.876,6.43,1.047,7.86-1.228,1.077-1.714.859-4.748,0.859-7.552V212.493h7.614v15.841c0,2.514-.288,5.586.675,7.184s2.009,2.062,4.114,2.517c1.868,0.405,4.1-1.066,4.728-1.965,1.271-1.811,1.044-4.657,1.044-7.736V212.493h7.613v14.429c0,2.591.3,6.255-.245,8.412a15.144,15.144,0,0,1-2.211,5.157,8.06,8.06,0,0,1-1.473,1.842,16.2,16.2,0,0,1-5.4,2.947c-0.731.217-1.4,0.134-2.21,0.307a5.039,5.039,0,0,1-1.658.062h-1.044c-0.478-.107-1.036-0.107-1.535-0.246a13.5,13.5,0,0,1-4.3-2.026,7.157,7.157,0,0,1-1.9-1.6,0.162,0.162,0,0,0-.061.061l-1.413,1.289a14.341,14.341,0,0,1-4.052,2.088,14.085,14.085,0,0,1-9.026-.675c-3.814-1.669-5.977-4.616-7.184-8.9-0.612-2.178-.307-5.348-0.307-7.982V212.493ZM519.12,219a5.926,5.926,0,0,1-1.29.184,14.828,14.828,0,0,0-1.9.614,9.7,9.7,0,0,0-4.974,5.281,12.655,12.655,0,0,0-.491,1.842,8.382,8.382,0,0,0,.246,3.929,9.126,9.126,0,0,0,5.4,6.263,8.826,8.826,0,0,0,4.482.8,15.668,15.668,0,0,0,2.518-.552,9.775,9.775,0,0,0,5.4-5.1,13.963,13.963,0,0,0,.675-2.334,8.858,8.858,0,0,0-.675-5.1C527.022,221.315,524.148,218.994,519.12,219Zm72.39,0a4.078,4.078,0,0,1-.982.123,12.925,12.925,0,0,0-2.026.614,9.86,9.86,0,0,0-5.219,5.587q-0.215.891-.43,1.781a8.414,8.414,0,0,0,.368,4.052,9.133,9.133,0,0,0,5.465,6.018,8.579,8.579,0,0,0,4.3.736,16.693,16.693,0,0,0,2.7-.614,9.718,9.718,0,0,0,5.28-5.1,13.563,13.563,0,0,0,.614-2.087,8.548,8.548,0,0,0-.245-4.114,9.508,9.508,0,0,0-6.57-6.693A10.879,10.879,0,0,0,591.51,219Zm74.54,0a3.98,3.98,0,0,1-.982.123,12.864,12.864,0,0,0-1.9.552,9.453,9.453,0,0,0-5.833,8.351h0.062a3.864,3.864,0,0,1,.859-0.307c0.861-.356,1.793-0.607,2.7-0.982,2.892-1.195,6.012-2.12,8.9-3.316,0.844-.349,1.717-0.592,2.517-0.921a4.655,4.655,0,0,0,1.351-.491c-0.557-.362-0.984-0.966-1.535-1.351A10.239,10.239,0,0,0,666.05,219Zm89.522,0a3.815,3.815,0,0,1-.921.123,13.655,13.655,0,0,0-2.088.614,9.493,9.493,0,0,0-5.71,8.289h0.061a5,5,0,0,1,1.044-.368c0.861-.356,1.793-0.608,2.7-0.983,2.832-1.169,5.889-2.088,8.719-3.254,0.909-.375,1.84-0.628,2.7-0.982a3.932,3.932,0,0,0,1.167-.43c-0.5-.325-0.861-0.883-1.351-1.228A10.349,10.349,0,0,0,755.572,219Zm-126.914.061a4.043,4.043,0,0,1-.983.123,13.065,13.065,0,0,0-2.026.614,9.736,9.736,0,0,0-5.1,5.281,14.058,14.058,0,0,0-.553,2.149,7.955,7.955,0,0,0,.307,3.745,9.231,9.231,0,0,0,5.526,6.263,8.766,8.766,0,0,0,4.3.737,16.669,16.669,0,0,0,2.7-.614,9.765,9.765,0,0,0,5.342-5.219,13.4,13.4,0,0,0,.552-1.9,8.992,8.992,0,0,0-.307-4.42,9.444,9.444,0,0,0-6.508-6.448A10.99,10.99,0,0,0,628.658,219.062ZM429.537,245.6a17.158,17.158,0,0,1-6.641-1.295,16.683,16.683,0,0,1-9.108-9.125,18.075,18.075,0,0,1-1.345-7.041v-29.76h7.815V215.2l0.891-1.122a7.5,7.5,0,0,1,1.614-1.489,9.751,9.751,0,0,1,2.08-1.088,13.959,13.959,0,0,1,2.344-.659,12.647,12.647,0,0,1,2.35-.229,17.08,17.08,0,0,1,6.671,1.31,16.683,16.683,0,0,1,5.418,3.657,17.534,17.534,0,0,1,3.66,5.549,17.993,17.993,0,0,1,1.345,7.009,18.359,18.359,0,0,1-1.345,7.12,16.927,16.927,0,0,1-3.657,5.514,16.4,16.4,0,0,1-5.415,3.563A17.647,17.647,0,0,1,429.537,245.6Zm0-27.2a8.167,8.167,0,0,0-3.615.83,9.893,9.893,0,0,0-2.929,2.175,10.156,10.156,0,0,0-1.96,3.105,9.628,9.628,0,0,0-.711,3.631,10.272,10.272,0,0,0,.71,3.837,9.532,9.532,0,0,0,1.968,3.08,9.337,9.337,0,0,0,2.937,2.064,8.906,8.906,0,0,0,7.2,0,9.359,9.359,0,0,0,2.937-2.064,9.775,9.775,0,0,0,1.982-3.077,10.063,10.063,0,0,0,.728-3.84,10.175,10.175,0,0,0-.728-3.854,9.741,9.741,0,0,0-1.982-3.1,9.2,9.2,0,0,0-2.941-2.05A8.91,8.91,0,0,0,429.537,218.4Zm29.348,39.539v-7.752l4.383,0.057a8.052,8.052,0,0,0,2.647-.441,9.07,9.07,0,0,0,4.221-3.043,9.9,9.9,0,0,0,1.32-2.29l0.45-1.1-1.107.462q-1.444.6-2.936,1.2a7.509,7.509,0,0,1-2.82.567,15.659,15.659,0,0,1-5.8-1.075,14.4,14.4,0,0,1-4.74-3.056,14.175,14.175,0,0,1-3.2-4.824,16.836,16.836,0,0,1-1.169-6.409v-18.32h7.751v18.32a9.152,9.152,0,0,0,.564,3.341,7.063,7.063,0,0,0,1.54,2.424,6.267,6.267,0,0,0,2.288,1.467,7.963,7.963,0,0,0,2.764.475,6.032,6.032,0,0,0,2.787-.676,7.646,7.646,0,0,0,2.252-1.749,8.337,8.337,0,0,0,1.5-2.447,7.6,7.6,0,0,0,.55-2.835v-18.32h7.847v29.252a16.533,16.533,0,0,1-1.375,6.541,17.046,17.046,0,0,1-3.673,5.344,17.633,17.633,0,0,1-5.426,3.616,16.683,16.683,0,0,1-6.616,1.325Z" transform="translate(-0.281 -0.938)"/>
</svg>
