<svg xmlns="http://www.w3.org/2000/svg" width="170" height="110" viewBox="0 0 1250 258.938">
  <defs>
    <style>
      .cls-1 {
        fill: #c5c6c6;
        fill-rule: evenodd;
      }
    </style>
  </defs>
  <path id="logo-checkov-by-bc" class="cls-1" d="M1005.62,170.552H974.479L928.1,48.536h35.35l26.6,76.1,26.49-76.1H1052ZM908.1,154.323a61.628,61.628,0,0,1-101.278-20.394,65.848,65.848,0,0,1-4.887-25.462,66.9,66.9,0,0,1,4.887-25.746,63.076,63.076,0,0,1,13.356-20.45,62.117,62.117,0,0,1,19.779-13.508,60.119,60.119,0,0,1,24.153-4.9,63.618,63.618,0,0,1,24.268,4.614,58.665,58.665,0,0,1,19.722,13.1,62.153,62.153,0,0,1,13.3,20.393,69.176,69.176,0,0,1,4.886,26.49,65.87,65.87,0,0,1-4.887,25.462,63.737,63.737,0,0,1-13.3,20.4v0ZM892.583,94.847a32.39,32.39,0,0,0-6.65-10.482,28.774,28.774,0,0,0-9.831-6.722,31.958,31.958,0,0,0-23.988,0,28.178,28.178,0,0,0-9.774,6.722A32.085,32.085,0,0,0,835.8,94.847a37.051,37.051,0,0,0-2.388,13.615,35.3,35.3,0,0,0,2.388,13.1,32.854,32.854,0,0,0,6.536,10.482,30.547,30.547,0,0,0,9.774,7.006,28.567,28.567,0,0,0,11.994,2.564,30.348,30.348,0,0,0,11.994-2.392,29.852,29.852,0,0,0,9.831-6.722,31.574,31.574,0,0,0,6.65-10.482A38.991,38.991,0,0,0,892.583,94.847ZM764.425,170.552l-24.666-44.317-21.6,28.707v15.607H686.9V0h31.259V107.55l46.262-58.787h35.691L759.764,99.575l40.352,70.977H764.425ZM644.389,87.1a31.463,31.463,0,0,0-6.65-6.437,28.811,28.811,0,0,0-8.014-3.987,29.212,29.212,0,0,0-8.866-1.368,28.063,28.063,0,0,0-11.993,2.62,29.4,29.4,0,0,0-9.775,7.348,35.251,35.251,0,0,0-6.537,11.22,41.354,41.354,0,0,0-2.387,14.355,30.1,30.1,0,0,0,2.394,11.961,31.438,31.438,0,0,0,6.537,9.8,30.049,30.049,0,0,0,9.775,6.612,31.234,31.234,0,0,0,20.744,1.139,31.6,31.6,0,0,0,7.895-3.589,29.436,29.436,0,0,0,6.6-5.7,29.89,29.89,0,0,0,4.717-7.462l22.733,22.9a61.258,61.258,0,0,1-9.945,11.051,62.779,62.779,0,0,1-12.163,8.315,60.673,60.673,0,0,1-13.753,5.183,62.245,62.245,0,0,1-14.834,1.766,60.762,60.762,0,0,1-24.153-4.841,62.362,62.362,0,0,1-33.134-32.986,60.059,60.059,0,0,1-4.888-24.153,69.754,69.754,0,0,1,4.888-26.2A67.59,67.59,0,0,1,576.932,63.4a63.179,63.179,0,0,1,19.779-14.3,56.761,56.761,0,0,1,24.153-5.24A58.288,58.288,0,0,1,635.811,45.8a60.27,60.27,0,0,1,26.257,14.7,56.358,56.358,0,0,1,9.719,12.3L649.053,95.7a30.857,30.857,0,0,0-4.659-8.6ZM496.167,141.448q1.817,0.171,3.637.171a30.481,30.481,0,0,0,8.753-1.253,31.626,31.626,0,0,0,7.9-3.589,29.453,29.453,0,0,0,6.6-5.7,29.919,29.919,0,0,0,4.717-7.462l22.734,22.9a61.3,61.3,0,0,1-9.946,11.051,62.779,62.779,0,0,1-12.163,8.315,60.673,60.673,0,0,1-13.753,5.183,62.245,62.245,0,0,1-14.834,1.766,61.389,61.389,0,0,1-43.931-18.114,62.545,62.545,0,0,1-13.356-20.336,67.039,67.039,0,0,1-4.888-25.918,69.254,69.254,0,0,1,4.888-26.432,59.663,59.663,0,0,1,33.133-33.5,62.651,62.651,0,0,1,24.16-4.673A61.108,61.108,0,0,1,514.7,45.687a62.717,62.717,0,0,1,36.031,24.722l-58.2,70.294a17.635,17.635,0,0,0,3.636.742Zm12.276-64.883a17.973,17.973,0,0,0-4.263-1.025,40.833,40.833,0,0,0-4.376-.227,30.978,30.978,0,0,0-11.993,2.335,28.558,28.558,0,0,0-9.776,6.665,31.442,31.442,0,0,0-6.528,10.422,37.4,37.4,0,0,0-2.386,13.724q0,1.708.17,3.873t0.568,4.387q0.4,2.22.967,4.271a15.78,15.78,0,0,0,1.477,3.647ZM390.8,100.829h0.228a22.907,22.907,0,0,0-1.819-9.058A23.455,23.455,0,0,0,376.82,79.3a22.358,22.358,0,0,0-8.98-1.823,23.449,23.449,0,0,0-9.207,1.823,23.158,23.158,0,0,0-12.5,12.475,22.87,22.87,0,0,0-1.819,9.058v69.723H313.284V0h31.031V53.89A36.243,36.243,0,0,1,355.8,47.909a41.879,41.879,0,0,1,12.048-1.766,52.727,52.727,0,0,1,21.142,4.273,53.776,53.776,0,0,1,17.22,11.735A56.061,56.061,0,0,1,417.8,79.581a53.49,53.49,0,0,1,4.263,21.248v69.723H390.8V100.829ZM270.773,87.1a31.453,31.453,0,0,0-6.649-6.436,28.814,28.814,0,0,0-8.014-3.987,29.222,29.222,0,0,0-8.865-1.368,28.069,28.069,0,0,0-11.994,2.62,29.421,29.421,0,0,0-9.776,7.348A35.226,35.226,0,0,0,218.94,96.5a41.354,41.354,0,0,0-2.387,14.355,30.093,30.093,0,0,0,2.387,11.963,31.432,31.432,0,0,0,6.535,9.8,30.074,30.074,0,0,0,9.776,6.612A31.228,31.228,0,0,0,256,140.363a31.61,31.61,0,0,0,7.9-3.589,29.453,29.453,0,0,0,6.6-5.7,29.922,29.922,0,0,0,4.718-7.462l22.733,22.9a61.3,61.3,0,0,1-9.946,11.051,62.8,62.8,0,0,1-12.162,8.315,60.7,60.7,0,0,1-13.752,5.189,62.187,62.187,0,0,1-14.833,1.761,60.739,60.739,0,0,1-24.154-4.841,62.365,62.365,0,0,1-33.134-32.984,60.058,60.058,0,0,1-4.887-24.153,69.736,69.736,0,0,1,4.887-26.2A67.574,67.574,0,0,1,203.313,63.4a63.161,63.161,0,0,1,19.778-14.3,56.758,56.758,0,0,1,24.154-5.24A58.3,58.3,0,0,1,262.192,45.8a60.28,60.28,0,0,1,26.257,14.7,56.354,56.354,0,0,1,9.718,12.3L275.43,95.7A30.879,30.879,0,0,0,270.773,87.1ZM687.3,197.789h7.671v15.869h0.062a7.46,7.46,0,0,1,2.27-1.231,28.06,28.06,0,0,1,4.173-1.353l1.473-.123a8.2,8.2,0,0,1,2.761,0l1.105,0.062a21.475,21.475,0,0,1,6.628,2.46,17.8,17.8,0,0,1,6.873,8.488,18.312,18.312,0,0,1,.614,2.338,15.647,15.647,0,0,1,.184,6.642,26.526,26.526,0,0,1-1.227,4c-2.093,4.778-6.026,7.843-11.231,9.534-0.765.25-1.484,0.179-2.332,0.37a11.186,11.186,0,0,1-2.209.123,15.2,15.2,0,0,1-8.775-2.645,17.186,17.186,0,0,1-7.181-9.411c-1.144-3.479-.859-8.383-0.859-12.917v-22.2Zm98.74,0h7.671q-0.03,8.456-.061,16.915v5.535a14.856,14.856,0,0,1-.062,2.829v3.015c0,2.477.075,5.1-.551,7.012a17.005,17.005,0,0,1-6.567,8.8c-0.528.371-1.091,0.578-1.657,0.922-2.615,1.592-7.725,2.971-11.906,1.784-5.82-1.652-9.813-5.028-12.027-10.273a24.313,24.313,0,0,1-.982-3.506,16.569,16.569,0,0,1,.614-8.058c2.046-5.51,5.177-8.907,10.677-10.949a17.6,17.6,0,0,1,9.574-.491,21.9,21.9,0,0,1,5.277,2.337V197.789h0Zm-30.131,2.46h0.367a1.049,1.049,0,0,1,.184.245,3.261,3.261,0,0,1,.123,1.538v4.182c0,0.608.15,1.425-.307,1.6a3.746,3.746,0,0,1-1.657.124H750.26c-0.542,0-1.58-.029-1.35-0.678l1.841-1.783Zm-23.381,44.963h-7.671v-15.5c0-3.237-.191-6.679.614-9.164a13.26,13.26,0,0,1,7.977-8.8c3.458-1.412,8.006-.665,12.213-0.553v0.124a12.682,12.682,0,0,0-1.166,2.029c-0.642,1.049-1.321,2.15-1.964,3.2-0.326.531-.718,1.894-1.473,1.9a4.2,4.2,0,0,0-1.9,0l-1.1.061a7.319,7.319,0,0,0-3.62,1.539c-2.076,2.067-1.9,4.989-1.9,9.1v16.057h-0.013Zm171.891,0V229.527c0-2.983-.25-6.343.49-8.673,1.373-4.316,3.746-7.306,7.733-8.98a20.089,20.089,0,0,1,3.13-.861l1.6-.123a9.977,9.977,0,0,1,2.761-.062c0.811,0.175,1.848,0,2.7.185a14.425,14.425,0,0,0,2.394.184v0.061a9.172,9.172,0,0,0-.921,1.6c-0.8,1.288-1.6,2.646-2.394,3.936-0.3.485-.6,1.639-1.288,1.661a4.2,4.2,0,0,0-1.9,0l-1.165.061a8.511,8.511,0,0,0-3.376,1.354c-2.156,1.576-2.086,4.708-2.086,8.489v16.792a9.61,9.61,0,0,1-2.455.061h-5.216ZM849.8,210.89a16.783,16.783,0,0,1,3.866.123,27.883,27.883,0,0,1,4.725,1.414,17.23,17.23,0,0,1,9.757,13.656,9.96,9.96,0,0,0-1.779.676c-1.349.561-2.749,0.937-4.051,1.477-0.821.34-1.627,0.456-2.455,0.8-2.668,1.1-5.553,1.971-8.222,3.075-1.736.718-3.529,1.211-5.217,1.9a6.505,6.505,0,0,0-1.841.677h0.061a4.685,4.685,0,0,0,1.474,1.168,9.264,9.264,0,0,0,12.948-2.706c1.614,0.878,3.334,1.727,4.971,2.584,0.441,0.23,1.612.624,1.718,1.107a4.886,4.886,0,0,0-.736,1.1c-0.44.626-1.084,1.125-1.535,1.722a2.593,2.593,0,0,1-.429.554c-0.887.673-1.687,1.488-2.639,2.091a21.473,21.473,0,0,1-6.321,2.46l-1.473.123a7.593,7.593,0,0,1-1.657.062,17.6,17.6,0,0,1-6.5-1.415,16.545,16.545,0,0,1-9.511-10.641,16.243,16.243,0,0,1-.553-7.934,28.843,28.843,0,0,1,1.412-4.429,17.276,17.276,0,0,1,9.02-8.489,25.3,25.3,0,0,1,3.5-.984,6.1,6.1,0,0,0,1.474-.178h0Zm37.8,0a17.89,17.89,0,0,1,10.494,2.583c0.915,0.578,1.662,1.411,2.578,1.968V215.5h-0.062l-5.278,5.351a8.367,8.367,0,0,1-.982-0.738,10.4,10.4,0,0,0-2.639-1.292c-5.522-1.809-10.134,2.138-11.593,5.721a13.35,13.35,0,0,0-.614,3.321,8.111,8.111,0,0,0,.735,3.568,9.258,9.258,0,0,0,13.62,4.551,4.92,4.92,0,0,0,1.539-1.1h0.062v0.061l5.339,5.291v0.058H900.74a9.223,9.223,0,0,1-2.394,1.845c-3.263,2.177-9.009,3.912-14.115,2.215a17,17,0,0,1-11.475-11.379,16.256,16.256,0,0,1-.552-8.114,23.3,23.3,0,0,1,.981-3.383,17.434,17.434,0,0,1,8.6-9.043,28.149,28.149,0,0,1,3.682-1.23,12.809,12.809,0,0,0,2.142-.314h0Zm51.672,0a18.3,18.3,0,0,1,4.6.245c5.336,1.388,8.8,3.863,11.353,8a15.468,15.468,0,0,1,2.393,6.952,14.394,14.394,0,0,0-2.27.86c-1.35.561-2.748,0.937-4.05,1.477-0.821.339-1.634,0.46-2.455,0.8-2.67,1.1-5.554,1.973-8.224,3.076-1.513.626-3.078,1.057-4.541,1.661a7.249,7.249,0,0,0-2.025.738h0.062a4.853,4.853,0,0,0,1.6,1.23,9.562,9.562,0,0,0,7.241,1.23c2.219-.623,4.639-2.127,5.585-4,1.621,0.882,3.362,1.7,4.971,2.584,0.444,0.242,1.616.6,1.718,1.107a6.838,6.838,0,0,0-.675,1.046c-0.4.577-.922,1.092-1.35,1.66a5.267,5.267,0,0,1-1.044.922c-0.819.621-1.556,1.4-2.454,1.969a20.979,20.979,0,0,1-6.5,2.4l-1.1.061a14.621,14.621,0,0,1-7.058-.923,18.235,18.235,0,0,1-2.639-1.1,17.467,17.467,0,0,1-8.039-10.211,14.808,14.808,0,0,1-.675-5.044q0.03-.861.061-1.722a24.178,24.178,0,0,1,.8-3.506c1.852-4.6,4.746-8.126,9.2-10.088a24.25,24.25,0,0,1,3.437-1.1Zm-126.847.061c10.059-.192,15.859,5.563,18.043,13.223,0.77,2.7.468,6.232,0.43,9.412v5.351a12.183,12.183,0,0,1,0,2.46c-0.2.878,0.072,1.7-.123,2.522a25.693,25.693,0,0,1-.983,3.814,18.06,18.06,0,0,1-5.768,7.689,20.087,20.087,0,0,1-5.769,2.89c-0.8.261-1.56,0.228-2.454,0.431a12.5,12.5,0,0,1-3.989.062l-2.516-.493a20.066,20.066,0,0,1-5.4-2.583c-0.37-.26-0.688-0.654-1.043-0.922a10.913,10.913,0,0,1-2.21-2.276,3.244,3.244,0,0,1-.859-1.169,10.815,10.815,0,0,0,1.534-1.476l2.455-2.4a6.7,6.7,0,0,1,1.534-1.477v0.062a13.53,13.53,0,0,1,1.105,1.661,9.759,9.759,0,0,0,3.989,2.952,10.036,10.036,0,0,0,6.5.061,9.265,9.265,0,0,0,6.383-8.549h-0.061a7.829,7.829,0,0,1-1.964,1.1,17.589,17.589,0,0,1-12.394,1.046,17.331,17.331,0,0,1-11.722-19.868,26.292,26.292,0,0,1,1.1-3.444,17.043,17.043,0,0,1,8.652-8.674,24.522,24.522,0,0,1,3.438-1.1Zm-63.823.491h7.67v33.77H748.6v-33.77h0Zm213.068,0.493h7.61a7.969,7.969,0,0,1,.061,2.029v18.884c0.1,0.451.206,0.9,0.307,1.353a5.176,5.176,0,0,0,1.534,2.275c2.529,1.879,6.427,1.049,7.856-1.23,1.076-1.717.859-4.756,0.859-7.565V211.936h7.61v15.869c0,2.518-.288,5.6.674,7.2s2.008,2.065,4.112,2.521c1.867,0.406,4.1-1.068,4.725-1.968,1.271-1.815,1.044-4.666,1.044-7.75V211.936h7.606V226.39c0,2.6.3,6.266-.24,8.427a15.222,15.222,0,0,1-2.21,5.166,8.331,8.331,0,0,1-1.47,1.846,16.249,16.249,0,0,1-5.4,2.952c-0.731.217-1.4,0.134-2.209,0.307a5.012,5.012,0,0,1-1.657.063h-1.044c-0.477-.108-1.035-0.108-1.534-0.247a13.483,13.483,0,0,1-4.3-2.03,7.127,7.127,0,0,1-1.9-1.6,0.17,0.17,0,0,0-.061.061l-1.413,1.291a14.312,14.312,0,0,1-4.05,2.092,14.051,14.051,0,0,1-9.021-.676c-3.812-1.672-5.974-4.625-7.18-8.916-0.612-2.182-.307-5.358-0.307-8V211.936h0Zm-258.05,6.519a5.966,5.966,0,0,1-1.289.185,14.752,14.752,0,0,0-1.9.615,9.7,9.7,0,0,0-4.971,5.29,12.669,12.669,0,0,0-.491,1.845,8.408,8.408,0,0,0,.246,3.936,9.136,9.136,0,0,0,5.4,6.274,8.794,8.794,0,0,0,4.479.8,15.678,15.678,0,0,0,2.517-.553,9.779,9.779,0,0,0,5.4-5.109,14.006,14.006,0,0,0,.675-2.338,8.88,8.88,0,0,0-.675-5.109C711.52,220.773,708.648,218.448,703.622,218.454Zm72.352,0a4.065,4.065,0,0,1-.982.123,13.054,13.054,0,0,0-2.025.615,9.877,9.877,0,0,0-5.216,5.6q-0.215.892-.43,1.785a8.468,8.468,0,0,0,.368,4.059,9.139,9.139,0,0,0,5.462,6.028,8.553,8.553,0,0,0,4.3.738,16.718,16.718,0,0,0,2.7-.615,9.725,9.725,0,0,0,5.277-5.109,13.5,13.5,0,0,0,.613-2.091,8.589,8.589,0,0,0-.244-4.121,9.511,9.511,0,0,0-6.567-6.7,10.829,10.829,0,0,0-3.253-.3h0Zm74.5,0a3.96,3.96,0,0,1-.981.123,13.022,13.022,0,0,0-1.9.553,9.472,9.472,0,0,0-5.83,8.366h0.062a3.87,3.87,0,0,1,.858-0.307c0.861-.357,1.792-0.608,2.7-0.984,2.89-1.2,6.009-2.124,8.895-3.322,0.844-.35,1.716-0.593,2.516-0.923a4.644,4.644,0,0,0,1.35-.491c-0.557-.363-0.983-0.968-1.534-1.354a10.217,10.217,0,0,0-6.136-1.661h0Zm89.475,0a3.818,3.818,0,0,1-.921.123,13.829,13.829,0,0,0-2.087.615,9.512,9.512,0,0,0-5.707,8.3H931.3a5.021,5.021,0,0,1,1.044-.368c0.86-.357,1.792-0.61,2.7-0.985,2.831-1.171,5.886-2.092,8.715-3.26,0.908-.376,1.839-0.629,2.7-0.984a3.951,3.951,0,0,0,1.167-.43c-0.5-.326-0.861-0.885-1.351-1.231a10.329,10.329,0,0,0-6.317-1.784h0Zm-126.847.061a4.066,4.066,0,0,1-.982.124,12.989,12.989,0,0,0-2.025.615,9.744,9.744,0,0,0-5.1,5.29,14.255,14.255,0,0,0-.552,2.153,7.981,7.981,0,0,0,.307,3.751,9.238,9.238,0,0,0,5.523,6.275,8.741,8.741,0,0,0,4.3.738,16.612,16.612,0,0,0,2.7-.615,9.768,9.768,0,0,0,5.339-5.228,13.451,13.451,0,0,0,.552-1.9,9.017,9.017,0,0,0-.307-4.428,9.451,9.451,0,0,0-6.5-6.459,10.928,10.928,0,0,0-3.248-.311h0ZM614.087,245.1a17.119,17.119,0,0,1-6.638-1.3,16.69,16.69,0,0,1-9.1-9.141A18.157,18.157,0,0,1,597,227.609V197.8h7.811v16.85l0.89-1.124a7.514,7.514,0,0,1,1.613-1.491,9.768,9.768,0,0,1,2.079-1.09,13.826,13.826,0,0,1,2.343-.66,12.6,12.6,0,0,1,2.349-.23,17.027,17.027,0,0,1,6.667,1.313,16.657,16.657,0,0,1,5.415,3.663,17.535,17.535,0,0,1,3.658,5.559,18.05,18.05,0,0,1,1.345,7.021,18.419,18.419,0,0,1-1.345,7.133,16.93,16.93,0,0,1-3.655,5.524,16.382,16.382,0,0,1-5.412,3.569,17.594,17.594,0,0,1-6.673,1.267h0Zm0-27.248a8.151,8.151,0,0,0-3.613.832,9.9,9.9,0,0,0-2.928,2.178,10.208,10.208,0,0,0-1.959,3.111,9.686,9.686,0,0,0-.71,3.637,10.309,10.309,0,0,0,.709,3.844,9.577,9.577,0,0,0,1.967,3.086,9.341,9.341,0,0,0,2.936,2.067,8.875,8.875,0,0,0,7.2,0,9.336,9.336,0,0,0,2.935-2.067,9.8,9.8,0,0,0,1.981-3.083,10.094,10.094,0,0,0,.728-3.847,10.2,10.2,0,0,0-.728-3.86,9.76,9.76,0,0,0-1.981-3.106,9.2,9.2,0,0,0-2.939-2.054A8.889,8.889,0,0,0,614.087,217.853Zm29.332,39.609V249.7l4.381,0.057a8.042,8.042,0,0,0,2.645-.442,9.056,9.056,0,0,0,4.219-3.048,9.922,9.922,0,0,0,1.32-2.3l0.449-1.1-1.106.463q-1.444.6-2.935,1.2a7.489,7.489,0,0,1-2.818.568,15.622,15.622,0,0,1-5.8-1.076,14.4,14.4,0,0,1-4.737-3.062,14.207,14.207,0,0,1-3.2-4.832,16.926,16.926,0,0,1-1.168-6.421V211.357h7.747v18.352a9.224,9.224,0,0,0,.563,3.347,7.069,7.069,0,0,0,1.54,2.428,6.26,6.26,0,0,0,2.286,1.47,7.937,7.937,0,0,0,2.763.476,6.025,6.025,0,0,0,2.785-.677A7.637,7.637,0,0,0,654.608,235a8.341,8.341,0,0,0,1.5-2.452,7.611,7.611,0,0,0,.55-2.84V211.357H664.5v29.3a16.593,16.593,0,0,1-1.374,6.552,17.087,17.087,0,0,1-3.671,5.354,17.638,17.638,0,0,1-5.423,3.622,16.621,16.621,0,0,1-6.613,1.327Z" transform="translate(6.469)"/>
</svg>
