<svg xmlns="http://www.w3.org/2000/svg" width="13" height="13" viewBox="0 0 250 250">
  <defs>
    <style>
      .cls-1 {
        fill: grey;
        fill-rule: evenodd;
      }
    </style>
  </defs>
  <path id="checkov" class="cls-1" d="M825,985A125,125,0,1,1,950,860,125,125,0,0,1,825,985Zm48.85-173.227a63.427,63.427,0,0,0-27.392-14.811,62.267,62.267,0,0,0-15.595-1.953,60.951,60.951,0,0,0-25.19,5.282A65.829,65.829,0,0,0,785.042,814.7a68.266,68.266,0,0,0-19.034,47.833,58.936,58.936,0,0,0,5.093,24.35,64.168,64.168,0,0,0,34.572,33.248,65.3,65.3,0,0,0,25.19,4.877,67.119,67.119,0,0,0,15.479-1.784,64.152,64.152,0,0,0,14.349-5.227,65.351,65.351,0,0,0,12.682-8.376,62.41,62.41,0,0,0,10.373-11.143l-23.708-23.087a30.044,30.044,0,0,1-4.919,7.531,30.537,30.537,0,0,1-6.877,5.734,33.271,33.271,0,0,1-29.886,2.472,31.344,31.344,0,0,1-17.018-16.538,29.518,29.518,0,0,1-2.483-12.057,40.522,40.522,0,0,1,2.483-14.473,35.655,35.655,0,0,1,6.818-11.312,30.8,30.8,0,0,1,10.2-7.4,30.134,30.134,0,0,1,12.507-2.642,31.61,31.61,0,0,1,9.255,1.377,30.473,30.473,0,0,1,8.357,4.018,32.322,32.322,0,0,1,6.935,6.492h0a30.6,30.6,0,0,1,4.86,8.67l23.72-23.086A57.177,57.177,0,0,0,873.85,811.773Z" transform="translate(-700 -735)"/>
</svg>
