<svg xmlns="http://www.w3.org/2000/svg" width="13.5" height="13.5" viewBox="0 0 30.5 30.5">
  <defs>
    <style>
      .cls-1 {
        fill: #e95069;
        fill-rule: evenodd;
      }
    </style>
  </defs>
  <path id="error" class="cls-1" d="M15.5,0.242A15.251,15.251,0,1,0,30.752,15.494,15.269,15.269,0,0,0,15.5.242Zm5.11,21.489a1.144,1.144,0,0,1-.815-0.338l-4.009-4.006a0.411,0.411,0,0,0-.58,0L11.2,21.394a1.153,1.153,0,0,1-1.631-1.631l4.009-4.005a0.41,0.41,0,0,0,0-.58L9.6,11.205a1.154,1.154,0,0,1,1.632-1.631l3.977,3.974a0.411,0.411,0,0,0,.58,0l3.976-3.973a1.153,1.153,0,1,1,1.631,1.63l-3.976,3.973a0.41,0.41,0,0,0,0,.58l4.009,4.005A1.153,1.153,0,0,1,20.61,21.732Z" transform="translate(-0.25 -0.25)"/>
</svg>
